<svg width="188" height="66" viewBox="0 0 188 66" fill="none" xmlns="http://www.w3.org/2000/svg">
<g id="Group">
<g id="Group_2">
<path id="Vector" d="M151.416 0.5336C131.37 0.5336 115.34 12.9885 115.34 33C115.34 53.0027 131.37 65.4664 151.416 65.4664C171.47 65.4664 187.5 53.0027 187.5 33C187.5 12.9901 171.47 0.5336 151.416 0.5336ZM151.416 57.7197C136.961 57.7197 130.876 46.0697 130.876 33C130.876 19.9215 136.961 8.28027 151.416 8.28027C165.879 8.28027 171.963 19.922 171.963 33C171.963 46.0697 165.87 57.7197 151.416 57.7197Z" fill="#FCB715"/>
</g>
<path id="Vector_2" d="M85.2453 2.37701H60.8025V39.5C58.5174 34.3851 53.4542 31.2599 47.6119 30.2731C52.1646 28.0226 55.7233 24.1885 55.7233 17.5149C55.7233 8.36604 49.6558 2.38528 35.3156 2.38528L35.298 2.3765H0.5V63.5708H38.4713C49.7581 63.5708 57.7987 60.4461 60.802 53.0977V63.5708H85.236C102.261 63.5708 113.825 58.5076 119.425 48.9604C116.68 44.0904 115.27 38.5813 115.34 32.9912C115.268 27.393 116.683 21.876 119.443 17.0045C113.843 7.4402 102.279 2.37701 85.2453 2.37701ZM15.128 10.4869H29.5565C36.957 10.4869 40.5142 13.9665 40.5142 19.3413C40.5142 24.7077 36.957 28.1869 29.5565 28.1869H15.128V10.4869ZM35.0351 55.4604H15.1362V36.2978H35.0351C43.0499 36.2978 46.9015 40.0544 46.9015 45.8791C46.902 51.6955 43.0483 55.4604 35.0351 55.4604ZM83.5311 55.4604H75.4388V10.4869H83.5316C100.843 10.4869 107.819 20.0682 107.819 32.9736C107.819 45.8791 100.842 55.4604 83.5316 55.4604H83.5311Z" fill="white"/>
</g>
</svg>
