<svg width="16" height="16" viewBox="0 0 16 16" fill="none" xmlns="http://www.w3.org/2000/svg">
<path d="M14.9604 13.052C14.5814 12.1544 14.0315 11.339 13.3412 10.6513C12.653 9.9617 11.8377 9.41185 10.9405 9.03215C10.9325 9.02813 10.9244 9.02612 10.9164 9.02211C12.1679 8.11809 12.9816 6.64554 12.9816 4.98416C12.9816 2.23193 10.7517 0.00201416 7.99942 0.00201416C5.24719 0.00201416 3.01728 2.23193 3.01728 4.98416C3.01728 6.64554 3.8309 8.11809 5.08246 9.02411C5.07442 9.02813 5.06639 9.03014 5.05835 9.03416C4.15835 9.41385 3.35076 9.95827 2.65768 10.6534C1.96804 11.3415 1.41818 12.1568 1.03848 13.054C0.665471 13.9324 0.464297 14.8742 0.445851 15.8284C0.445315 15.8498 0.449076 15.8711 0.456912 15.8911C0.464748 15.9111 0.476501 15.9293 0.491479 15.9446C0.506456 15.96 0.524355 15.9722 0.54412 15.9805C0.563885 15.9888 0.585118 15.9931 0.606565 15.9931H1.81192C1.90032 15.9931 1.97063 15.9228 1.97264 15.8364C2.01282 14.2855 2.63558 12.833 3.73648 11.7322C4.87554 10.5931 6.38826 9.9663 7.99942 9.9663C9.61058 9.9663 11.1233 10.5931 12.2624 11.7322C13.3633 12.833 13.986 14.2855 14.0262 15.8364C14.0282 15.9248 14.0985 15.9931 14.1869 15.9931H15.3923C15.4137 15.9931 15.435 15.9888 15.4547 15.9805C15.4745 15.9722 15.4924 15.96 15.5074 15.9446C15.5223 15.9293 15.5341 15.9111 15.5419 15.8911C15.5498 15.8711 15.5535 15.8498 15.553 15.8284C15.5329 14.8681 15.334 13.9339 14.9604 13.052ZM7.99942 8.43952C7.07732 8.43952 6.20947 8.07992 5.55657 7.42702C4.90366 6.77411 4.54407 5.90626 4.54407 4.98416C4.54407 4.06206 4.90366 3.1942 5.55657 2.5413C6.20947 1.8884 7.07732 1.5288 7.99942 1.5288C8.92152 1.5288 9.78938 1.8884 10.4423 2.5413C11.0952 3.1942 11.4548 4.06206 11.4548 4.98416C11.4548 5.90626 11.0952 6.77411 10.4423 7.42702C9.78938 8.07992 8.92152 8.43952 7.99942 8.43952Z" fill="white"/>
</svg>
